<mxfile host="app.diagrams.net" agent="Mozilla/5.0 (Windows NT 10.0; Win64; x64) AppleWebKit/537.36 (KHTML, like Gecko) Chrome/131.0.0.0 Safari/537.36" version="25.0.3">
  <diagram id="C5RBs43oDa-KdzZeNtuy" name="Page-1">
    <mxGraphModel dx="1050" dy="557" grid="1" gridSize="10" guides="1" tooltips="1" connect="1" arrows="1" fold="1" page="1" pageScale="1" pageWidth="827" pageHeight="1169" math="0" shadow="0">
      <root>
        <mxCell id="WIyWlLk6GJQsqaUBKTNV-0" />
        <mxCell id="WIyWlLk6GJQsqaUBKTNV-1" parent="WIyWlLk6GJQsqaUBKTNV-0" />
        <mxCell id="6R4BisENy8nbugGnJPWp-2" value="" style="edgeStyle=orthogonalEdgeStyle;rounded=0;orthogonalLoop=1;jettySize=auto;html=1;" edge="1" parent="WIyWlLk6GJQsqaUBKTNV-1" source="6R4BisENy8nbugGnJPWp-0" target="6R4BisENy8nbugGnJPWp-1">
          <mxGeometry relative="1" as="geometry" />
        </mxCell>
        <mxCell id="6R4BisENy8nbugGnJPWp-0" value="Start" style="ellipse;whiteSpace=wrap;html=1;" vertex="1" parent="WIyWlLk6GJQsqaUBKTNV-1">
          <mxGeometry x="340" width="120" height="80" as="geometry" />
        </mxCell>
        <mxCell id="6R4BisENy8nbugGnJPWp-5" value="" style="edgeStyle=orthogonalEdgeStyle;rounded=0;orthogonalLoop=1;jettySize=auto;html=1;" edge="1" parent="WIyWlLk6GJQsqaUBKTNV-1" source="6R4BisENy8nbugGnJPWp-1" target="6R4BisENy8nbugGnJPWp-4">
          <mxGeometry relative="1" as="geometry" />
        </mxCell>
        <mxCell id="6R4BisENy8nbugGnJPWp-1" value="a" style="rounded=0;whiteSpace=wrap;html=1;" vertex="1" parent="WIyWlLk6GJQsqaUBKTNV-1">
          <mxGeometry x="340" y="130" width="120" height="60" as="geometry" />
        </mxCell>
        <mxCell id="6R4BisENy8nbugGnJPWp-8" value="FALSE" style="edgeStyle=orthogonalEdgeStyle;rounded=0;orthogonalLoop=1;jettySize=auto;html=1;" edge="1" parent="WIyWlLk6GJQsqaUBKTNV-1" source="6R4BisENy8nbugGnJPWp-3" target="6R4BisENy8nbugGnJPWp-7">
          <mxGeometry relative="1" as="geometry" />
        </mxCell>
        <mxCell id="6R4BisENy8nbugGnJPWp-18" value="TRUE" style="edgeStyle=orthogonalEdgeStyle;rounded=0;orthogonalLoop=1;jettySize=auto;html=1;" edge="1" parent="WIyWlLk6GJQsqaUBKTNV-1" source="6R4BisENy8nbugGnJPWp-3" target="6R4BisENy8nbugGnJPWp-17">
          <mxGeometry relative="1" as="geometry" />
        </mxCell>
        <mxCell id="6R4BisENy8nbugGnJPWp-3" value="a &amp;lt; 4" style="rhombus;whiteSpace=wrap;html=1;" vertex="1" parent="WIyWlLk6GJQsqaUBKTNV-1">
          <mxGeometry x="340" y="350" width="120" height="80" as="geometry" />
        </mxCell>
        <mxCell id="6R4BisENy8nbugGnJPWp-6" value="" style="edgeStyle=orthogonalEdgeStyle;rounded=0;orthogonalLoop=1;jettySize=auto;html=1;" edge="1" parent="WIyWlLk6GJQsqaUBKTNV-1" source="6R4BisENy8nbugGnJPWp-4" target="6R4BisENy8nbugGnJPWp-3">
          <mxGeometry relative="1" as="geometry" />
        </mxCell>
        <mxCell id="6R4BisENy8nbugGnJPWp-4" value="a" style="shape=parallelogram;perimeter=parallelogramPerimeter;whiteSpace=wrap;html=1;fixedSize=1;" vertex="1" parent="WIyWlLk6GJQsqaUBKTNV-1">
          <mxGeometry x="340" y="240" width="120" height="60" as="geometry" />
        </mxCell>
        <mxCell id="6R4BisENy8nbugGnJPWp-12" value="FALSE" style="edgeStyle=orthogonalEdgeStyle;rounded=0;orthogonalLoop=1;jettySize=auto;html=1;" edge="1" parent="WIyWlLk6GJQsqaUBKTNV-1" source="6R4BisENy8nbugGnJPWp-7" target="6R4BisENy8nbugGnJPWp-9">
          <mxGeometry relative="1" as="geometry" />
        </mxCell>
        <mxCell id="6R4BisENy8nbugGnJPWp-20" value="TRUE" style="edgeStyle=orthogonalEdgeStyle;rounded=0;orthogonalLoop=1;jettySize=auto;html=1;" edge="1" parent="WIyWlLk6GJQsqaUBKTNV-1" source="6R4BisENy8nbugGnJPWp-7" target="6R4BisENy8nbugGnJPWp-19">
          <mxGeometry relative="1" as="geometry" />
        </mxCell>
        <mxCell id="6R4BisENy8nbugGnJPWp-7" value="4 &amp;lt;= a &amp;lt;= 6" style="rhombus;whiteSpace=wrap;html=1;" vertex="1" parent="WIyWlLk6GJQsqaUBKTNV-1">
          <mxGeometry x="337.5" y="480" width="125" height="80" as="geometry" />
        </mxCell>
        <mxCell id="6R4BisENy8nbugGnJPWp-13" value="FALSE" style="edgeStyle=orthogonalEdgeStyle;rounded=0;orthogonalLoop=1;jettySize=auto;html=1;" edge="1" parent="WIyWlLk6GJQsqaUBKTNV-1" source="6R4BisENy8nbugGnJPWp-9" target="6R4BisENy8nbugGnJPWp-10">
          <mxGeometry relative="1" as="geometry">
            <Array as="points">
              <mxPoint x="400" y="710" />
              <mxPoint x="400" y="710" />
            </Array>
          </mxGeometry>
        </mxCell>
        <mxCell id="6R4BisENy8nbugGnJPWp-22" value="TRUE" style="edgeStyle=orthogonalEdgeStyle;rounded=0;orthogonalLoop=1;jettySize=auto;html=1;" edge="1" parent="WIyWlLk6GJQsqaUBKTNV-1" source="6R4BisENy8nbugGnJPWp-9" target="6R4BisENy8nbugGnJPWp-21">
          <mxGeometry relative="1" as="geometry" />
        </mxCell>
        <mxCell id="6R4BisENy8nbugGnJPWp-9" value="6 &amp;lt;= a &amp;lt;= 8" style="rhombus;whiteSpace=wrap;html=1;" vertex="1" parent="WIyWlLk6GJQsqaUBKTNV-1">
          <mxGeometry x="337.5" y="610" width="125" height="80" as="geometry" />
        </mxCell>
        <mxCell id="6R4BisENy8nbugGnJPWp-14" value="FALSE" style="edgeStyle=orthogonalEdgeStyle;rounded=0;orthogonalLoop=1;jettySize=auto;html=1;" edge="1" parent="WIyWlLk6GJQsqaUBKTNV-1" source="6R4BisENy8nbugGnJPWp-10" target="6R4BisENy8nbugGnJPWp-11">
          <mxGeometry relative="1" as="geometry">
            <Array as="points">
              <mxPoint x="400" y="840" />
              <mxPoint x="400" y="840" />
            </Array>
          </mxGeometry>
        </mxCell>
        <mxCell id="6R4BisENy8nbugGnJPWp-24" value="TRUE" style="edgeStyle=orthogonalEdgeStyle;rounded=0;orthogonalLoop=1;jettySize=auto;html=1;" edge="1" parent="WIyWlLk6GJQsqaUBKTNV-1" source="6R4BisENy8nbugGnJPWp-10" target="6R4BisENy8nbugGnJPWp-23">
          <mxGeometry relative="1" as="geometry" />
        </mxCell>
        <mxCell id="6R4BisENy8nbugGnJPWp-10" value="8 &amp;lt;= a &amp;lt;= 9" style="rhombus;whiteSpace=wrap;html=1;" vertex="1" parent="WIyWlLk6GJQsqaUBKTNV-1">
          <mxGeometry x="337.5" y="740" width="125" height="80" as="geometry" />
        </mxCell>
        <mxCell id="6R4BisENy8nbugGnJPWp-16" value="" style="edgeStyle=orthogonalEdgeStyle;rounded=0;orthogonalLoop=1;jettySize=auto;html=1;" edge="1" parent="WIyWlLk6GJQsqaUBKTNV-1" source="6R4BisENy8nbugGnJPWp-11" target="6R4BisENy8nbugGnJPWp-15">
          <mxGeometry relative="1" as="geometry" />
        </mxCell>
        <mxCell id="6R4BisENy8nbugGnJPWp-26" value="TRUE" style="edgeStyle=orthogonalEdgeStyle;rounded=0;orthogonalLoop=1;jettySize=auto;html=1;" edge="1" parent="WIyWlLk6GJQsqaUBKTNV-1" source="6R4BisENy8nbugGnJPWp-11" target="6R4BisENy8nbugGnJPWp-25">
          <mxGeometry relative="1" as="geometry" />
        </mxCell>
        <mxCell id="6R4BisENy8nbugGnJPWp-11" value="9 &amp;lt; a &amp;lt;= 10" style="rhombus;whiteSpace=wrap;html=1;" vertex="1" parent="WIyWlLk6GJQsqaUBKTNV-1">
          <mxGeometry x="337.5" y="870" width="125" height="80" as="geometry" />
        </mxCell>
        <mxCell id="6R4BisENy8nbugGnJPWp-15" value="End" style="ellipse;whiteSpace=wrap;html=1;" vertex="1" parent="WIyWlLk6GJQsqaUBKTNV-1">
          <mxGeometry x="340" y="1040" width="120" height="80" as="geometry" />
        </mxCell>
        <mxCell id="6R4BisENy8nbugGnJPWp-32" style="edgeStyle=orthogonalEdgeStyle;rounded=0;orthogonalLoop=1;jettySize=auto;html=1;exitX=1;exitY=0.5;exitDx=0;exitDy=0;endArrow=none;endFill=0;" edge="1" parent="WIyWlLk6GJQsqaUBKTNV-1" source="6R4BisENy8nbugGnJPWp-17">
          <mxGeometry relative="1" as="geometry">
            <mxPoint x="760" y="920" as="targetPoint" />
          </mxGeometry>
        </mxCell>
        <mxCell id="6R4BisENy8nbugGnJPWp-17" value="KHÔNG ĐẠT" style="shape=parallelogram;perimeter=parallelogramPerimeter;whiteSpace=wrap;html=1;fixedSize=1;" vertex="1" parent="WIyWlLk6GJQsqaUBKTNV-1">
          <mxGeometry x="560" y="360" width="120" height="60" as="geometry" />
        </mxCell>
        <mxCell id="6R4BisENy8nbugGnJPWp-33" style="edgeStyle=orthogonalEdgeStyle;rounded=0;orthogonalLoop=1;jettySize=auto;html=1;exitX=1;exitY=0.5;exitDx=0;exitDy=0;endArrow=none;endFill=0;" edge="1" parent="WIyWlLk6GJQsqaUBKTNV-1" source="6R4BisENy8nbugGnJPWp-19">
          <mxGeometry relative="1" as="geometry">
            <mxPoint x="760" y="520" as="targetPoint" />
          </mxGeometry>
        </mxCell>
        <mxCell id="6R4BisENy8nbugGnJPWp-19" value="TRUNG BÌNH" style="shape=parallelogram;perimeter=parallelogramPerimeter;whiteSpace=wrap;html=1;fixedSize=1;" vertex="1" parent="WIyWlLk6GJQsqaUBKTNV-1">
          <mxGeometry x="560" y="490" width="120" height="60" as="geometry" />
        </mxCell>
        <mxCell id="6R4BisENy8nbugGnJPWp-34" style="edgeStyle=orthogonalEdgeStyle;rounded=0;orthogonalLoop=1;jettySize=auto;html=1;exitX=1;exitY=0.5;exitDx=0;exitDy=0;endArrow=none;endFill=0;" edge="1" parent="WIyWlLk6GJQsqaUBKTNV-1" source="6R4BisENy8nbugGnJPWp-21">
          <mxGeometry relative="1" as="geometry">
            <mxPoint x="760" y="650" as="targetPoint" />
          </mxGeometry>
        </mxCell>
        <mxCell id="6R4BisENy8nbugGnJPWp-21" value="KHÁ" style="shape=parallelogram;perimeter=parallelogramPerimeter;whiteSpace=wrap;html=1;fixedSize=1;" vertex="1" parent="WIyWlLk6GJQsqaUBKTNV-1">
          <mxGeometry x="560" y="620" width="120" height="60" as="geometry" />
        </mxCell>
        <mxCell id="6R4BisENy8nbugGnJPWp-35" style="edgeStyle=orthogonalEdgeStyle;rounded=0;orthogonalLoop=1;jettySize=auto;html=1;exitX=1;exitY=0.5;exitDx=0;exitDy=0;endArrow=none;endFill=0;" edge="1" parent="WIyWlLk6GJQsqaUBKTNV-1" source="6R4BisENy8nbugGnJPWp-23">
          <mxGeometry relative="1" as="geometry">
            <mxPoint x="760" y="780" as="targetPoint" />
          </mxGeometry>
        </mxCell>
        <mxCell id="6R4BisENy8nbugGnJPWp-23" value="GIỎI" style="shape=parallelogram;perimeter=parallelogramPerimeter;whiteSpace=wrap;html=1;fixedSize=1;" vertex="1" parent="WIyWlLk6GJQsqaUBKTNV-1">
          <mxGeometry x="560" y="750" width="120" height="60" as="geometry" />
        </mxCell>
        <mxCell id="6R4BisENy8nbugGnJPWp-31" style="edgeStyle=orthogonalEdgeStyle;rounded=0;orthogonalLoop=1;jettySize=auto;html=1;exitX=1;exitY=0.5;exitDx=0;exitDy=0;entryX=1;entryY=0.5;entryDx=0;entryDy=0;" edge="1" parent="WIyWlLk6GJQsqaUBKTNV-1" source="6R4BisENy8nbugGnJPWp-25" target="6R4BisENy8nbugGnJPWp-15">
          <mxGeometry relative="1" as="geometry">
            <Array as="points">
              <mxPoint x="760" y="910" />
              <mxPoint x="760" y="1080" />
            </Array>
          </mxGeometry>
        </mxCell>
        <mxCell id="6R4BisENy8nbugGnJPWp-25" value="XUẤT SẮC" style="shape=parallelogram;perimeter=parallelogramPerimeter;whiteSpace=wrap;html=1;fixedSize=1;" vertex="1" parent="WIyWlLk6GJQsqaUBKTNV-1">
          <mxGeometry x="560" y="880" width="120" height="60" as="geometry" />
        </mxCell>
      </root>
    </mxGraphModel>
  </diagram>
</mxfile>
